inDegrees=no
DataType=double
version=3
OpenSimVersion=4.4-2022-10-11-798caa840
endheader
time	elv_angle	shoulder_elv	shoulder_rot	elbow_flexion	pro_sup	deviation	flexion
1.2010425717	0.0783617049	0.5607174779	0.0824860052	1.6739038333	0.0000000000	0.0000000000	0.0000000000
1.2052128584	0.0794416373	0.5612290248	0.0836227761	1.6753247969	0.0000000000	0.0000000000	0.0000000000
1.2093831451	0.0805273983	0.5617433327	0.0847656824	1.6767534299	0.0000000000	0.0000000000	0.0000000000
1.2135534318	0.0816189207	0.5622603696	0.0859146533	1.6781896435	0.0000000000	0.0000000000	0.0000000000
1.2177237185	0.0827161364	0.5627801034	0.0870696172	1.6796333483	0.0000000000	0.0000000000	0.0000000000
1.2218940052	0.0838189768	0.5633025014	0.0882305019	1.6810844542	0.0000000000	0.0000000000	0.0000000000
1.2260642919	0.0849273727	0.5638275311	0.0893972344	1.6825428698	0.0000000000	0.0000000000	0.0000000000
1.2302345786	0.0860412541	0.5643551591	0.0905697412	1.6840085033	0.0000000000	0.0000000000	0.0000000000
1.2344048653	0.0871605506	0.5648853522	0.0917479480	1.6854812618	0.0000000000	0.0000000000	0.0000000000
1.2385751520	0.0882851910	0.5654180766	0.0929317800	1.6869610518	0.0000000000	0.0000000000	0.0000000000
1.2427454387	0.0894151036	0.5659532983	0.0941211617	1.6884477789	0.0000000000	0.0000000000	0.0000000000
1.2469157255	0.0905502160	0.5664909832	0.0953160169	1.6899413479	0.0000000000	0.0000000000	0.0000000000
1.2510860122	0.0916904554	0.5670310966	0.0965162689	1.6914416629	0.0000000000	0.0000000000	0.0000000000
1.2552562989	0.0928357483	0.5675736038	0.0977218404	1.6929486273	0.0000000000	0.0000000000	0.0000000000
1.2594265856	0.0939860207	0.5681184696	0.0989326534	1.6944621435	0.0000000000	0.0000000000	0.0000000000
1.2635968723	0.0951411979	0.5686656588	0.1001486294	1.6959821135	0.0000000000	0.0000000000	0.0000000000
1.2677671590	0.0963012048	0.5692151358	0.1013696893	1.6975084384	0.0000000000	0.0000000000	0.0000000000
1.2719374457	0.0974659658	0.5697668647	0.1025957535	1.6990410187	0.0000000000	0.0000000000	0.0000000000
1.2761077324	0.0986354046	0.5703208094	0.1038267417	1.7005797540	0.0000000000	0.0000000000	0.0000000000
1.2802780191	0.0998094446	0.5708769336	0.1050625733	1.7021245434	0.0000000000	0.0000000000	0.0000000000
1.2844483058	0.1009880085	0.5714352007	0.1063031668	1.7036752853	0.0000000000	0.0000000000	0.0000000000
1.2886185925	0.1021710185	0.5719955739	0.1075484406	1.7052318775	0.0000000000	0.0000000000	0.0000000000
1.2927888792	0.1033583966	0.5725580161	0.1087983122	1.7067942171	0.0000000000	0.0000000000	0.0000000000
1.2969591659	0.1045500640	0.5731224901	0.1100526989	1.7083622005	0.0000000000	0.0000000000	0.0000000000
1.3011294526	0.1057459415	0.5736889584	0.1113115174	1.7099357235	0.0000000000	0.0000000000	0.0000000000
1.3052997394	0.1069459496	0.5742573833	0.1125746838	1.7115146815	0.0000000000	0.0000000000	0.0000000000
1.3094700261	0.1081500082	0.5748277268	0.1138421139	1.7130989691	0.0000000000	0.0000000000	0.0000000000
1.3136403128	0.1093580367	0.5753999509	0.1151137228	1.7146884804	0.0000000000	0.0000000000	0.0000000000
1.3178105995	0.1105699543	0.5759740171	0.1163894256	1.7162831088	0.0000000000	0.0000000000	0.0000000000
1.3219808862	0.1117856796	0.5765498870	0.1176691364	1.7178827473	0.0000000000	0.0000000000	0.0000000000
1.3261511729	0.1130051308	0.5771275218	0.1189527693	1.7194872884	0.0000000000	0.0000000000	0.0000000000
1.3303214596	0.1142282258	0.5777068826	0.1202402377	1.7210966239	0.0000000000	0.0000000000	0.0000000000
1.3344917463	0.1154548820	0.5782879302	0.1215314547	1.7227106452	0.0000000000	0.0000000000	0.0000000000
1.3386620330	0.1166850165	0.5788706255	0.1228263331	1.7243292432	0.0000000000	0.0000000000	0.0000000000
1.3428323197	0.1179185459	0.5794549289	0.1241247851	1.7259523082	0.0000000000	0.0000000000	0.0000000000
1.3470026064	0.1191553865	0.5800408008	0.1254267227	1.7275797301	0.0000000000	0.0000000000	0.0000000000
1.3511728931	0.1203954544	0.5806282014	0.1267320573	1.7292113984	0.0000000000	0.0000000000	0.0000000000
1.3553431798	0.1216386651	0.5812170907	0.1280407001	1.7308472020	0.0000000000	0.0000000000	0.0000000000
1.3595134666	0.1228849340	0.5818074285	0.1293525621	1.7324870294	0.0000000000	0.0000000000	0.0000000000
1.3636837533	0.1241341759	0.5823991747	0.1306675535	1.7341307687	0.0000000000	0.0000000000	0.0000000000
1.3678540400	0.1253863055	0.5829922887	0.1319855847	1.7357783077	0.0000000000	0.0000000000	0.0000000000
1.3720243267	0.1266412371	0.5835867300	0.1333065654	1.7374295336	0.0000000000	0.0000000000	0.0000000000
1.3761946134	0.1278988849	0.5841824579	0.1346304051	1.7390843332	0.0000000000	0.0000000000	0.0000000000
1.3803649001	0.1291591624	0.5847794315	0.1359570130	1.7407425931	0.0000000000	0.0000000000	0.0000000000
1.3845351868	0.1304219832	0.5853776097	0.1372862981	1.7424041994	0.0000000000	0.0000000000	0.0000000000
1.3887054735	0.1316872605	0.5859769516	0.1386181689	1.7440690379	0.0000000000	0.0000000000	0.0000000000
1.3928757602	0.1329549071	0.5865774158	0.1399525338	1.7457369941	0.0000000000	0.0000000000	0.0000000000
1.3970460469	0.1342248359	0.5871789610	0.1412893009	1.7474079530	0.0000000000	0.0000000000	0.0000000000
1.4012163336	0.1354969591	0.5877815457	0.1426283780	1.7490817994	0.0000000000	0.0000000000	0.0000000000
1.4053866203	0.1367711891	0.5883851283	0.1439696728	1.7507584178	0.0000000000	0.0000000000	0.0000000000
1.4095569070	0.1380474378	0.5889896672	0.1453130925	1.7524376924	0.0000000000	0.0000000000	0.0000000000
1.4137271937	0.1393256170	0.5895951205	0.1466585442	1.7541195071	0.0000000000	0.0000000000	0.0000000000
1.4178974805	0.1406056383	0.5902014464	0.1480059350	1.7558037456	0.0000000000	0.0000000000	0.0000000000
1.4220677672	0.1418874129	0.5908086028	0.1493551715	1.7574902912	0.0000000000	0.0000000000	0.0000000000
1.4262380539	0.1431708522	0.5914165477	0.1507061602	1.7591790271	0.0000000000	0.0000000000	0.0000000000
1.4304083406	0.1444558672	0.5920252390	0.1520588075	1.7608698362	0.0000000000	0.0000000000	0.0000000000
1.4345786273	0.1457423686	0.5926346344	0.1534130195	1.7625626012	0.0000000000	0.0000000000	0.0000000000
1.4387489140	0.1470302671	0.5932446916	0.1547687022	1.7642572046	0.0000000000	0.0000000000	0.0000000000
1.4429192007	0.1483194734	0.5938553683	0.1561257615	1.7659535287	0.0000000000	0.0000000000	0.0000000000
1.4470894874	0.1496098979	0.5944666220	0.1574841030	1.7676514556	0.0000000000	0.0000000000	0.0000000000
1.4512597741	0.1509014507	0.5950784101	0.1588436323	1.7693508672	0.0000000000	0.0000000000	0.0000000000
1.4554300608	0.1521940421	0.5956906903	0.1602042548	1.7710516454	0.0000000000	0.0000000000	0.0000000000
1.4596003475	0.1534875821	0.5963034198	0.1615658759	1.7727536717	0.0000000000	0.0000000000	0.0000000000
1.4637706342	0.1547819808	0.5969165560	0.1629284008	1.7744568278	0.0000000000	0.0000000000	0.0000000000
1.4679409209	0.1560771478	0.5975300562	0.1642917346	1.7761609950	0.0000000000	0.0000000000	0.0000000000
1.4721112076	0.1573729931	0.5981438776	0.1656557822	1.7778660546	0.0000000000	0.0000000000	0.0000000000
1.4762814944	0.1586694264	0.5987579776	0.1670204488	1.7795718878	0.0000000000	0.0000000000	0.0000000000
1.4804517811	0.1599663572	0.5993723132	0.1683856392	1.7812783758	0.0000000000	0.0000000000	0.0000000000
1.4846220678	0.1612636952	0.5999868418	0.1697512581	1.7829853995	0.0000000000	0.0000000000	0.0000000000
1.4887923545	0.1625613500	0.6006015203	0.1711172105	1.7846928400	0.0000000000	0.0000000000	0.0000000000
1.4929626412	0.1638592311	0.6012163061	0.1724834011	1.7864005782	0.0000000000	0.0000000000	0.0000000000
1.4971329279	0.1651572479	0.6018311562	0.1738497346	1.7881084951	0.0000000000	0.0000000000	0.0000000000
1.5013032146	0.1664553100	0.6024460277	0.1752161158	1.7898164715	0.0000000000	0.0000000000	0.0000000000
1.5054735013	0.1677533268	0.6030608778	0.1765824493	1.7915243884	0.0000000000	0.0000000000	0.0000000000
1.5096437880	0.1690512079	0.6036756635	0.1779486399	1.7932321266	0.0000000000	0.0000000000	0.0000000000
1.5138140747	0.1703488626	0.6042903421	0.1793145923	1.7949395671	0.0000000000	0.0000000000	0.0000000000
1.5179843614	0.1716462007	0.6049048707	0.1806802112	1.7966465908	0.0000000000	0.0000000000	0.0000000000
1.5221546481	0.1729431315	0.6055192063	0.1820454016	1.7983530788	0.0000000000	0.0000000000	0.0000000000
1.5263249348	0.1742395647	0.6061333063	0.1834100682	1.8000589120	0.0000000000	0.0000000000	0.0000000000
1.5304952215	0.1755354100	0.6067471277	0.1847741158	1.8017639716	0.0000000000	0.0000000000	0.0000000000
1.5346655083	0.1768305771	0.6073606279	0.1861374496	1.8034681388	0.0000000000	0.0000000000	0.0000000000
1.5388357950	0.1781249757	0.6079737641	0.1874999745	1.8051712949	0.0000000000	0.0000000000	0.0000000000
1.5430060817	0.1794185158	0.6085864936	0.1888615955	1.8068733212	0.0000000000	0.0000000000	0.0000000000
1.5471763684	0.1807111072	0.6091987737	0.1902222181	1.8085740994	0.0000000000	0.0000000000	0.0000000000
1.5513466551	0.1820026600	0.6098105619	0.1915817474	1.8102735110	0.0000000000	0.0000000000	0.0000000000
1.5555169418	0.1832930845	0.6104218156	0.1929400889	1.8119714379	0.0000000000	0.0000000000	0.0000000000
